<?xml version="1.0" encoding="UTF-8"?>
<svg width="24px" height="24px" viewBox="0 0 24 24" version="1.1" xmlns="http://www.w3.org/2000/svg" xmlns:xlink="http://www.w3.org/1999/xlink">
    <!-- Generator: sketchtool 64 (101010) - https://sketch.com -->
    <title>5A404259-A228-4923-B74A-326ADE5693B2</title>
    <desc>Created with sketchtool.</desc>
    <g id="Candidate-Side---Live-Proctoring" stroke="none" stroke-width="1" fill="none" fill-rule="evenodd">
        <g id="Verification---Error---ID-card-recheck" transform="translate(-708.000000, -412.000000)">
            <g id="content" transform="translate(518.000000, 354.000000)">
                <g id="error" transform="translate(190.000000, 58.000000)">
                    <circle id="Oval" fill="#D7553D" cx="12" cy="12" r="12"></circle>
                    <g id="close-(1)" transform="translate(7.000000, 7.000000)" fill="#FFFFFF" fill-rule="nonzero">
                        <path d="M5.55246094,5.00003906 L9.88560547,0.666875 C10.0381641,0.514316406 10.0381641,0.266972656 9.88560547,0.114433594 C9.73304687,-0.0381054688 9.48570312,-0.038125 9.33316406,0.114433594 L4.99999512,4.44759766 L0.666855469,0.114433594 C0.514296875,-0.038125 0.266953125,-0.038125 0.114414063,0.114433594 C-0.038125,0.266992187 -0.0381445312,0.514335937 0.114414063,0.666875 L4.44755859,5.00001465 L0.114414063,9.33318359 C-0.0381445312,9.48574219 -0.0381445312,9.73308594 0.114414063,9.885625 C0.190683594,9.96189453 0.290664063,10.0000146 0.390644531,10.0000146 C0.490625,10.0000146 0.590585938,9.96189453 0.666875,9.885625 L4.99999512,5.55248047 L9.33314453,9.885625 C9.40941406,9.96189453 9.50939453,10.0000146 9.609375,10.0000146 C9.70935547,10.0000146 9.80931641,9.96189453 9.88560547,9.885625 C10.0381641,9.73306641 10.0381641,9.48572266 9.88560547,9.33318359 L5.55246094,5.00003906 Z" id="Path"></path>
                    </g>
                </g>
            </g>
        </g>
    </g>
</svg>