<svg width="14" height="12" viewBox="0 0 14 12" fill="none" xmlns="http://www.w3.org/2000/svg">
<path d="M0.583333 6.41665L12.2205 6.41665L7.76446 10.661C7.53113 10.8832 7.52208 11.2525 7.74433 11.4858C7.96629 11.7189 8.33554 11.7282 8.56917 11.5059L13.6582 6.65844C13.8784 6.43794 14 6.14511 14 5.83332C14 5.52182 13.8784 5.22869 13.648 4.99857L8.56887 0.160985C8.456 0.05336 8.31133 -1.52588e-05 8.16667 -1.52588e-05C8.01267 -1.52588e-05 7.85867 0.0606518 7.74404 0.18111C7.52179 0.414444 7.53083 0.783401 7.76417 1.00565L12.2389 5.24998L0.583333 5.24998C0.261333 5.24998 0 5.51132 0 5.83332C0 6.15532 0.261333 6.41665 0.583333 6.41665Z" fill="#9B9B9B"/>
</svg>