<svg width="28" height="27" viewBox="0 0 28 27" fill="none" xmlns="http://www.w3.org/2000/svg">
<path d="M13.2606 1.4991C13.3207 1.35149 13.4229 1.22521 13.5544 1.13633C13.6859 1.04746 13.8406 1 13.9989 1C14.1573 1 14.312 1.04746 14.4435 1.13633C14.575 1.22521 14.6772 1.35149 14.7373 1.4991L17.7545 8.81203C17.811 8.94887 17.9039 9.06735 18.0229 9.15444C18.1419 9.24154 18.2824 9.29386 18.429 9.30566L26.2639 9.93809C26.9724 9.99532 27.2592 10.8867 26.7197 11.3517L20.7505 16.5056C20.639 16.6017 20.5559 16.7269 20.5103 16.8675C20.4647 17.0081 20.4584 17.1586 20.4921 17.3025L22.3166 25.0075C22.3533 25.1621 22.3437 25.3241 22.289 25.4732C22.2343 25.6223 22.137 25.7517 22.0094 25.8451C21.8818 25.9385 21.7296 25.9917 21.572 25.9979C21.4144 26.0042 21.2584 25.9633 21.1239 25.8803L14.415 21.7524C14.2896 21.6754 14.1457 21.6347 13.9989 21.6347C13.8522 21.6347 13.7082 21.6754 13.5829 21.7524L6.87397 25.8817C6.73945 25.9647 6.58354 26.0056 6.42593 25.9994C6.26833 25.9931 6.11611 25.9399 5.98848 25.8465C5.86086 25.7531 5.76357 25.6237 5.70889 25.4747C5.65421 25.3256 5.64459 25.1635 5.68127 25.0089L7.50582 17.3025C7.53965 17.1586 7.53343 17.008 7.48784 16.8674C7.44225 16.7268 7.35905 16.6016 7.2474 16.5056L1.27821 11.3517C1.15867 11.2482 1.0722 11.1113 1.02965 10.9583C0.987114 10.8053 0.990407 10.6431 1.03912 10.492C1.08783 10.3409 1.17979 10.2077 1.30343 10.1092C1.42707 10.0106 1.57687 9.95108 1.73399 9.93809L9.56891 9.30566C9.71551 9.29386 9.85604 9.24154 9.97503 9.15444C10.094 9.06735 10.1869 8.94887 10.2434 8.81203L13.2606 1.4991Z" stroke="#E2E8F0" stroke-width="1.5" stroke-linecap="round" stroke-linejoin="round"/>
</svg>
