<?xml version="1.0" encoding="UTF-8"?>
<svg width="21px" height="21px" viewBox="0 0 21 21" version="1.1" xmlns="http://www.w3.org/2000/svg" xmlns:xlink="http://www.w3.org/1999/xlink">
    <!-- Generator: Sketch 64 (93537) - https://sketch.com -->
    <title>globe</title>
    <desc>Created with Sketch.</desc>
    <g id="Page-1" stroke="none" stroke-width="1" fill="none" fill-rule="evenodd">
        <g id="globe" fill="#4A4A4A" fill-rule="nonzero">
            <path d="M10.5,0 C4.70129032,0 0,4.70086694 0,10.5 C0,16.2991331 4.70129032,21 10.5,21 C16.2987097,21 21,16.2991331 21,10.5 C21,4.70086694 16.2987097,0 10.5,0 Z M10.5,1.35483871 C11.2993548,1.35483871 12.0703427,1.46830645 12.8095766,1.66179435 L10.6109274,3.51538306 C10.3094758,3.71522177 10.1371573,4.06324597 10.1583266,4.423125 C10.1807661,4.78427419 10.3962702,5.10858871 10.7193145,5.27074597 L11.176996,5.49979839 L11.176996,8.21752016 C11.1029032,8.19423387 11.0262702,8.1802621 10.9466734,8.17772177 C10.6452218,8.17772177 10.3340323,8.32844758 10.1739919,8.59729839 L9.42544355,9.82258065 C9.06429435,9.82258065 8.72304435,9.96356855 8.46774194,10.2197177 L8.22810484,10.4593548 C8.03631048,10.6511492 7.93046371,10.9064516 7.93046371,11.1778427 C7.93046371,11.4492339 8.03631048,11.7045363 8.22810484,11.8963306 L8.46774194,12.1359677 L8.46774194,12.5322581 L7.53120968,12.5322581 L6.57477823,10.6172782 C6.42832807,10.3248174 6.15003545,10.1207467 5.82707661,10.0689919 C5.51461694,10.0169153 5.17590726,10.1231855 4.94727823,10.3535081 L4.12294355,11.1774194 L1.38913306,11.1774194 C1.37262097,10.9530242 1.35483871,10.728629 1.35483871,10.5 C1.35483871,5.45745968 5.45745968,1.35483871 10.5,1.35483871 Z M1.59024194,12.5322581 L4.12252016,12.5322581 C4.48366935,12.5322581 4.82491935,12.3912702 5.08022177,12.135121 L5.57219758,11.6435685 L6.31820565,13.1385484 C6.54979839,13.6004637 7.01425403,13.8866734 7.52993952,13.8866734 L8.46774194,13.8866734 C9.21544355,13.8866734 9.82258065,13.2786895 9.82258065,12.5318347 L9.82258065,12.1346976 C9.82258065,11.7815927 9.68116935,11.4348387 9.43221774,11.1833468 L9.43899194,11.1765726 C9.9127621,11.1765726 10.3585887,10.9238105 10.6007661,10.5190524 L11.0597177,9.75441532 C11.1935081,9.79802419 11.345504,9.82173387 11.516129,9.82173387 C12.0758468,9.82173387 12.5322581,9.36574597 12.5322581,8.80560484 L12.5322581,5.49852823 C12.5322581,4.98368952 12.2477419,4.52092742 11.7887903,4.28933468 L14.2897379,2.18637097 C17.4439718,3.63096774 19.6451613,6.80975806 19.6451613,10.5 C19.6451613,11.4615121 19.4940121,12.3874597 19.2179637,13.2587903 C19.1620766,13.1838508 19.1171976,13.1021371 19.0503024,13.0348185 L18.8436895,12.8282056 L18.8436895,12.7016129 C18.8436895,11.8611895 18.1599194,11.1774194 17.319496,11.1774194 L17.0625,11.1774194 C16.8296371,11.1774194 16.6056653,11.2311895 16.4041331,11.3285685 C16.1838785,11.2287564 15.9448191,11.17722 15.703004,11.1774194 L15.191129,11.1774194 C14.836754,11.1774194 14.4971976,11.2862298 14.2084476,11.4915726 L13.2041734,12.2070968 L11.5847177,12.8481048 C10.9377823,13.1067944 10.5203226,13.7240927 10.5203226,14.4205645 L10.5203226,14.8528427 C10.5203226,15.3050202 10.6964516,15.7305242 11.0161089,16.0501815 L11.5207863,16.5544355 C11.904375,16.9380242 12.4149798,17.1497177 12.9577621,17.1497177 L13.3955444,17.1497177 C13.5615121,17.1497177 13.7274798,17.1293952 13.8883669,17.0891734 L14.6669758,16.8944153 L15.1288911,17.3563306 C15.3566734,17.5841129 15.6322984,17.7428831 15.9303629,17.8411089 C14.4095565,18.9690121 12.5347984,19.6451613 10.5,19.6451613 C6.15647177,19.6451613 2.51788306,16.5988911 1.59024194,12.5322581 Z M17.3165323,16.5751815 C17.2796976,16.5811089 17.2454032,16.5967742 17.2077218,16.5967742 L16.5658669,16.5967742 C16.3863508,16.5967742 16.2140323,16.5252218 16.0870161,16.3982056 L15.5361895,15.847379 C15.254634,15.5659889 14.8461388,15.4528572 14.4599395,15.5493145 L13.5593952,15.7745565 C13.505625,15.7881048 13.4505847,15.794879 13.395121,15.794879 L12.9573387,15.794879 C12.7778226,15.794879 12.605504,15.7233266 12.4784879,15.5963105 L11.9742339,15.0920565 C11.9107612,15.0284606 11.8751613,14.9422704 11.8751613,14.8524194 L11.8751613,14.4205645 C11.8751613,14.2821169 11.9594153,14.1576411 12.088125,14.1059879 L13.7537298,13.4395766 C13.8375605,13.406129 13.9171573,13.3625202 13.9904032,13.3104435 L14.994254,12.5953427 C15.0516971,12.5546724 15.1203226,12.5327832 15.1907056,12.5326815 L15.7025806,12.5326815 C15.8393347,12.5326815 15.9629637,12.6148185 16.0154637,12.7414113 L16.2419758,13.2854637 C16.268278,13.3485149 16.3298883,13.3895885 16.3982056,13.3896169 L16.5590927,13.3896169 C16.6344556,13.3896169 16.7009274,13.3400806 16.7216734,13.2676815 L16.899496,12.6550403 C16.9206653,12.5826411 16.9867137,12.5331048 17.0620766,12.5331048 L17.3186492,12.5331048 C17.4122177,12.5331048 17.488004,12.6088911 17.488004,12.7024597 L17.488004,13.2498992 C17.488004,13.3396573 17.5235685,13.4260282 17.5870766,13.4895363 L18.0913306,13.9937903 C18.2183468,14.1208065 18.2898992,14.293125 18.2898992,14.4726411 L18.2898992,15.2664919 C18.0049488,15.7307604 17.6792057,16.1687212 17.3165323,16.5751815 L17.3165323,16.5751815 Z" id="Shape"></path>
        </g>
    </g>
</svg>