<?xml version="1.0" encoding="UTF-8"?>
<svg width="100px" height="91px" viewBox="0 0 100 91" version="1.1" xmlns="http://www.w3.org/2000/svg" xmlns:xlink="http://www.w3.org/1999/xlink">
    <!-- Generator: sketchtool 64 (101010) - https://sketch.com -->
    <title>ADABB3D0-767D-4E1D-AE86-FBD4B14D52F8</title>
    <desc>Created with sketchtool.</desc>
    <g id="Page-1" stroke="none" stroke-width="1" fill="none" fill-rule="evenodd">
        <g id="proview-load-error" transform="translate(-670.000000, -348.000000)" fill-rule="nonzero">
            <g id="warning" transform="translate(670.000000, 348.000000)">
                <path d="M63.0740234,7.74257812 L97.9835938,68.2080078 C99.2638672,70.4253906 100,72.9960937 100,75.7404297 C100,84.0744141 93.24375,90.8310547 84.909375,90.8310547 L50,90.8310547 L37.9275391,45.5078125 L50,0.184765625 C55.5898438,0.184765625 60.4662109,3.22636719 63.0740234,7.74257812 Z" id="Path" fill="#3B4145"></path>
                <path d="M36.9259766,7.74257812 L2.01621094,68.2080078 C0.736132813,70.4253906 0,72.9960937 0,75.7404297 C0,84.0744141 6.75625,90.8310547 15.090625,90.8310547 L50,90.8310547 L50,0.184765625 C44.4101562,0.184765625 39.5337891,3.22636719 36.9259766,7.74257812 Z" id="Path" fill="#525A61"></path>
                <path d="M92.7564453,71.2261719 L57.8470703,10.7613281 C56.2736328,8.03496094 53.384375,6.31464844 50.2595703,6.22617187 L80.1167969,84.7955078 L84.9095703,84.7955078 C89.9015625,84.7955078 93.9638672,80.7333984 93.9638672,75.7412109 C93.9638672,74.1556641 93.5453125,72.5943359 92.7564453,71.2261719 Z" id="Path" fill="#FFB751"></path>
                <path d="M86.8853516,71.2261719 C87.5673828,72.5943359 87.9275391,74.1556641 87.9275391,75.7412109 C87.9275391,80.7332031 84.4246094,84.7955078 80.1166016,84.7955078 L15.090625,84.7955078 C10.0986328,84.7955078 6.03632813,80.7332031 6.03632813,75.7412109 C6.03632813,74.1556641 6.45488281,72.5943359 7.24355469,71.2261719 L42.1529297,10.7613281 C43.7707031,7.96054688 46.7767578,6.22011719 50,6.22011719 C50.0865234,6.22011719 50.1730469,6.22207031 50.2595703,6.22617188 C52.9416016,6.33085938 55.4185547,8.04707031 56.7685547,10.7613281 L86.8853516,71.2261719 Z" id="Path" fill="#FFD764"></path>
                <path d="M50,64.6740234 L50,74.734375 C52.7787109,74.734375 55.0302734,72.4828125 55.0302734,69.7041016 C55.0302734,66.9255859 52.7787109,64.6740234 50,64.6740234 Z" id="Path" fill="#3B4145"></path>
                <path d="M50,64.6740234 C50.5552734,64.6740234 51.0060547,66.9255859 51.0060547,69.7042969 C51.0060547,72.4830078 50.5552734,74.7345703 50,74.7345703 C47.2212891,74.7345703 44.9697266,72.4830078 44.9697266,69.7042969 C44.9697266,66.9255859 47.2212891,64.6740234 50,64.6740234 Z" id="Path" fill="#525A61"></path>
                <path d="M50,21.4152344 L50,58.6386719 C52.7787109,58.6386719 55.0302734,56.3851562 55.0302734,53.6083984 L55.0302734,26.4455078 C55.0302734,23.6667969 52.7787109,21.4152344 50,21.4152344 Z" id="Path" fill="#3B4145"></path>
                <path d="M50,21.4152344 C50.5552734,21.4152344 51.0060547,23.6667969 51.0060547,26.4455078 L51.0060547,53.6083984 C51.0060547,56.3849609 50.5552734,58.6386719 50,58.6386719 C47.2212891,58.6386719 44.9697266,56.3851562 44.9697266,53.6083984 L44.9697266,26.4455078 C44.9697266,23.6667969 47.2212891,21.4152344 50,21.4152344 Z" id="Path" fill="#525A61"></path>
            </g>
        </g>
    </g>
</svg>